<?xml version="1.0" standalone="no"?>
<!DOCTYPE svg PUBLIC "-//W3C//DTD SVG 20010904//EN"
 "http://www.w3.org/TR/2001/REC-SVG-20010904/DTD/svg10.dtd">
<svg version="1.0" xmlns="http://www.w3.org/2000/svg"
 width="1200.000000pt" height="1200.000000pt" viewBox="0 0 1200.000000 1200.000000"
 preserveAspectRatio="xMidYMid meet">
<metadata>
Created by potrace 1.14, written by Peter Selinger 2001-2017
</metadata>
<g transform="translate(0.000000,1200.000000) scale(0.100000,-0.100000)"
fill="#000000" stroke="none">
<path d="M3775 9728 c-89 -19 -104 -37 -253 -298 -11 -19 -94 -165 -185 -323
-97 -168 -168 -303 -171 -325 -9 -55 3 -104 39 -162 12 -19 35 -60 52 -90 61
-111 395 -685 406 -698 6 -7 30 -25 54 -39 41 -24 55 -26 171 -27 l127 -2 0
-1224 0 -1224 -125 -2 c-137 -1 -176 -12 -222 -59 -15 -15 -82 -122 -149 -238
-68 -117 -172 -297 -232 -401 -115 -198 -137 -249 -131 -305 4 -33 29 -93 58
-141 27 -43 292 -504 299 -520 4 -8 16 -28 26 -45 11 -16 29 -48 41 -69 65
-120 109 -164 181 -183 55 -15 977 -9 1021 6 38 13 106 80 131 130 7 14 73
130 147 256 73 127 144 251 159 276 14 25 33 56 41 69 l15 22 909 0 c499 0
911 -4 916 -8 4 -5 94 -160 200 -344 106 -184 206 -347 223 -362 57 -51 65
-52 592 -52 536 1 529 0 587 61 22 23 101 152 221 363 10 19 78 136 150 260
175 302 175 299 50 512 -35 59 -63 109 -63 113 0 3 -9 18 -19 33 -10 15 -85
142 -166 282 -80 140 -158 268 -173 283 -57 61 -50 60 -592 61 l-495 1 -49
-24 c-54 -27 -69 -48 -215 -301 -42 -74 -114 -199 -160 -278 l-83 -142 -96 0
c-785 -3 -1757 1 -1759 7 -3 7 -129 227 -309 538 -110 189 -124 198 -329 199
l-140 2 0 1224 0 1224 145 1 c210 2 226 12 342 217 36 62 134 232 218 378 191
330 183 314 188 383 4 55 2 62 -58 168 -154 276 -424 736 -443 757 -12 13 -40
33 -62 45 -39 20 -54 21 -516 22 -262 0 -493 -3 -514 -7z"/>
<path d="M5514 7551 c-26 -25 -206 -219 -238 -258 -17 -20 -24 -37 -20 -50 7
-17 73 -84 139 -140 17 -14 62 -55 101 -92 40 -36 92 -84 116 -106 24 -22 78
-71 120 -110 41 -38 113 -104 158 -145 46 -41 95 -86 110 -100 101 -93 209
-192 230 -210 14 -12 69 -63 124 -113 54 -51 107 -99 116 -107 21 -18 196
-178 295 -270 38 -36 110 -101 159 -145 48 -44 103 -93 121 -110 17 -16 51
-47 73 -67 61 -56 75 -52 168 49 43 48 103 112 131 143 59 62 66 91 30 124
-98 89 -226 206 -252 231 -18 17 -72 66 -120 110 -49 44 -100 91 -115 105 -15
14 -64 59 -110 100 -45 41 -88 80 -94 85 -6 6 -69 64 -141 130 -71 65 -175
160 -230 210 -55 51 -112 103 -126 116 -15 13 -68 62 -119 109 -51 47 -102 93
-114 103 -22 19 -155 141 -265 242 -36 33 -77 71 -92 85 -15 14 -43 40 -63 58
-43 40 -68 46 -92 23z"/>
</g>
</svg>
